<svg viewBox="0 0 51 51" stroke="var(--color2, #e24b5a)" fill="var(--color2, #e24b5a)" width="32" height="32" xmlns="http://www.w3.org/2000/svg" xmlns:xlink="http://www.w3.org/1999/xlink">
    <style>
        :root, .palette0 {color: currentColor;
            --color0: #dadada;
            --color1: #ffc100;
            --color2: #e24b5a;
        }
    </style>
    <svg viewBox="0 0 50 50" width="50" height="50" xmlns="http://www.w3.org/2000/svg" xmlns:xlink="http://www.w3.org/1999/xlink">
        <path d="M26.8215 0.8822a1.4817 1.4817 0.8441 0 1 0.4315 1.1346c-0.039 0.6642-0.5097 1.0356-0.9804 1.407L4.2582 20.7963c-0.0766 0.0604-0.1531 0.1208-0.2726 0.1622A0.75 0.75 0.334 0 1 3.7397 21a1.3294 1.3294 1.2292 0 1-1.2526-0.8841c-0.3143-0.8842 0.5034-1.5497 1.3212-2.2152L24.5264 1.0398c0.3794-0.3087 0.7587-0.6174 1.3261-0.5884a1.4772 1.4772 0.7343 0 1 0.969 0.4308z" />
        <path transform="rotate(-45 31.673728 27.136932)" d="M45.6028 4a1.4867 1.4867 0.7544 0 1 1.0181 0.4034c0.4292 0.4033 0.4609 0.9134 0.4925 1.4235l1.5559 25.0578c0.0665 1.0705 0.133 2.141-0.7495 2.539a1.4013 1.4013 1.2091 0 1-1.5669-0.2865 0.7975 0.7975 0.3557 0 1-0.1611-0.2317c-0.0597-0.1303-0.0679-0.241-0.0761-0.3517L44.1561 6.1066c-0.0428-0.5777-0.0856-1.1555 0.356-1.631A1.4884 1.4884 0.8224 0 1 45.6028 4z" />
        <path d="M42.5 9a2 2 0.7854 0 1 1.4142 0.5858C44.5 10.1716 44.5 10.8995 44.5 11.6274v4.2074c0 0.4427 0 0.8854-0.3563 1.2416-0.3562 0.3563-0.7989 0.3563-1.2416 0.3563H42.5a2 2 0.7854 0 1-1.4142-0.5858C40.5 16.2611 40.5 15.5332 40.5 14.8052v-3.1778c0-0.7279 0-1.4558 0.5858-2.0416A2 2 0.7854 0 1 42.5 9z" />
        <path d="M17.5 29.5a1.5 1.5 0.7854 0 1 1.0607 0.4393C19 30.3787 19 30.9246 19 31.4706v16.5588c0 0.546 0 1.0919-0.4393 1.5313A1.5 1.5 0.7854 0 1 17.5 50a1.5 1.5 0.7854 0 1-1.0607-0.4393C16 49.1213 16 48.5754 16 48.0294V31.4706c0-0.546 0-1.0919 0.4393-1.5313A1.5 1.5 0.7854 0 1 17.5 29.5z" />
        <path d="M17.9706 29.5h14.0588c0.546 0 1.0919 0 1.5313 0.4393A1.5 1.5 0.7854 0 1 34 31a1.5 1.5 0.7854 0 1-0.4393 1.0607C33.1213 32.5 32.5754 32.5 32.0294 32.5H17.9706c-0.546 0-1.0919 0-1.5313-0.4393A1.5 1.5 0.7854 0 1 16 31a1.5 1.5 0.7854 0 1 0.4393-1.0607C16.8787 29.5 17.4246 29.5 17.9706 29.5z" />
        <path d="M32.5 29.5a1.5 1.5 0.7854 0 1 1.0607 0.4393C34 30.3787 34 30.9246 34 31.4706v16.5588c0 0.546 0 1.0919-0.4393 1.5313A1.5 1.5 0.7854 0 1 32.5 50a1.5 1.5 0.7854 0 1-1.0607-0.4393C31 49.1213 31 48.5754 31 48.0294V31.4706c0-0.546 0-1.0919 0.4393-1.5313A1.5 1.5 0.7854 0 1 32.5 29.5z" />
    </svg>
    <path d="M7.299 46.5l9.402 0c0.6369 0 1.2739 0 1.7864 0.5126A1.75 1.75 0.7854 0 1 19 48.25a1.75 1.75 0.7854 0 1-0.5126 1.2374C17.9749 50 17.3379 50 16.701 50H7.299c-0.6369 0-1.2739 0-1.7864-0.5126A1.75 1.75 0.7854 0 1 5 48.25a1.75 1.75 0.7854 0 1 0.5126-1.2374C6.0251 46.5 6.6621 46.5 7.299 46.5z" />
    <path d="M43 14.8185a1.5 1.5 0.7854 0 1 1.0607 0.4394C44.5 15.6972 44.5 16.2432 44.5 16.7891v31.2403c0 0.546 0 1.0919-0.4393 1.5313A1.5 1.5 0.7854 0 1 43 50a1.5 1.5 0.7854 0 1-1.0607-0.4393C41.5 49.1213 41.5 48.5754 41.5 48.0294V16.7891c0-0.5459 0-1.0919 0.4393-1.5312A1.5 1.5 0.7854 0 1 43 14.8185z" />
    <path d="M6.5 16.3548a1.5293 1.5 90 0 1 1.0607 0.4479C8 17.2507 8 17.8072 8 18.3639v29.627c0 0.5566 0 1.1132-0.4393 1.5612A1.5293 1.5 90 0 1 6.5 50a1.5293 1.5 90 0 1-1.0607-0.4479C5 49.1041 5 48.5475 5 47.9909v-29.627c0-0.5567 0-1.1132 0.4393-1.5612A1.5293 1.5 90 0 1 6.5 16.3548z" />
    <path d="M33.1403 46.5l9.2184 0c0.5929 0 1.1858 0 1.663 0.5126a1.75 1.6292 90 0 1 0.4772 1.2374 1.75 1.6292 90 0 1-0.4772 1.2374C43.5445 50 42.9516 50 42.3587 50l-9.2184 0c-0.593 0-1.186 0-1.6631-0.5126A1.75 1.6292 90 0 1 31 48.25a1.75 1.6292 90 0 1 0.4772-1.2374C31.9543 46.5 32.5473 46.5 33.1403 46.5z" />
</svg>